<svg width="40" height="40" viewBox="0 0 40 40" fill="none" xmlns="http://www.w3.org/2000/svg">
<path d="M29.0809 2.20167C28.3452 1.85725 27.3501 1.42554 26.5923 1.1319C25.1052 0.666856 24.2873 0.409731 22.6673 0.185936C22.7021 0.190698 22.6625 0.185936 22.6673 0.185936C22.6309 0.181175 22.5961 0.174826 22.5597 0.170064C22.5233 0.165303 22.4869 0.158954 22.4505 0.154192C22.343 0.139907 22.2354 0.12721 22.1262 0.114512C20.6818 0.000234325 20.4967 -0.0140504 19.288 0.00975749C18.9447 0.0288038 18.4859 0.0526118 18.1426 0.0827685C15.2459 0.408143 13.0817 1.17793 11.7765 1.76837L11.4063 1.93979C10.8684 2.20485 10.8573 2.20961 10.5836 2.35563C9.99825 2.67783 9.98717 2.68418 9.68659 2.86671C8.07132 3.88251 7.06672 4.68087 5.70141 6.03316C5.27268 6.4998 4.71421 7.13626 4.31079 7.62512C6.79302 4.96657 18.323 0.34783 26.6714 1.51283C27.8406 1.67631 28.2329 1.82233 29.0809 2.20167Z" fill="url(#paint0_linear_434_26934)"/>
<path style="mix-blend-mode:overlay" opacity="0.48" d="M29.0809 2.20167C28.3452 1.85725 27.3501 1.42554 26.5923 1.1319C25.1052 0.666856 24.2873 0.409731 22.6673 0.185936C22.7021 0.190698 22.6625 0.185936 22.6673 0.185936C22.6309 0.181175 22.5961 0.174826 22.5597 0.170064C22.5233 0.165303 22.4869 0.158954 22.4505 0.154192C22.343 0.139907 22.2354 0.12721 22.1262 0.114512C20.6818 0.000234325 20.4967 -0.0140504 19.288 0.00975749C18.9447 0.0288038 18.4859 0.0526118 18.1426 0.0827685C15.2459 0.408143 13.0817 1.17793 11.7765 1.76837L11.4063 1.93979C10.8684 2.20485 10.8573 2.20961 10.5836 2.35563C9.99825 2.67783 9.98717 2.68418 9.68659 2.86671C8.07132 3.88251 7.06672 4.68087 5.70141 6.03316C5.27268 6.4998 4.71421 7.13626 4.31079 7.62512C6.79302 4.96657 18.323 0.34783 26.6714 1.51283C27.8406 1.67631 28.2329 1.82233 29.0809 2.20167Z" fill="url(#paint1_linear_434_26934)"/>
<path d="M36.6428 24.5433C26.9021 20.3388 4.67911 31.5475 5.09361 33.303C5.10627 33.3538 5.15215 33.4109 5.17588 33.4569L6.02702 34.3442C7.51889 35.6965 7.57742 35.7489 8.53298 36.4266C10.1688 37.4821 10.2669 37.5456 11.3506 38.0741L12.1147 38.4217C10.5517 37.4075 18.2626 33.4649 24.6176 32.0316C27.073 31.4777 31.5106 30.7016 33.2968 32.2253C35.3075 34.6997 28.3038 38.4884 27.3356 38.2407C27.2945 38.2296 27.2454 38.1963 27.2059 38.1773C27.209 38.0201 27.2106 37.9678 27.5555 37.6868C28.095 37.1091 27.3498 37.0583 27.005 37.063C24.855 37.0964 20.0614 39.3026 20.8255 39.9073C20.9204 39.9819 21.1292 40.0105 21.4472 39.9898C21.7921 39.9565 22.2541 39.9152 22.5974 39.8708C23.2175 39.7777 23.6906 39.6973 24.0165 39.6295C24.5164 39.5184 24.8919 39.429 25.1429 39.3613C25.569 39.2407 25.8875 39.1465 26.0984 39.0788C26.4813 38.9508 26.7666 38.8513 26.9543 38.7804C27.314 38.6418 27.5824 38.5349 27.7596 38.4598C28.114 38.3053 28.3787 38.1863 28.5538 38.1027C29.0917 37.8376 29.1028 37.8328 29.3764 37.6868C29.9618 37.3646 29.9729 37.3583 30.2735 37.1757C31.5739 36.3583 32.6655 35.5727 34.0894 34.1823C34.8946 33.3268 35.5306 32.6506 36.4276 31.3555C36.8595 30.6762 37.4053 29.7508 37.7898 29.043C38.1837 28.1684 39.231 25.8432 36.638 24.5417L36.6428 24.5433Z" fill="url(#paint2_linear_434_26934)"/>
<path d="M36.6429 24.5434C31.4221 22.2896 22.618 24.4641 15.6333 27.2369C14.7822 27.567 12.3363 28.3654 14.1667 27.1163C15.9972 25.8672 15.5906 24.9736 13.1748 26.1719C10.759 27.3702 3.59075 31.5795 5.17438 33.4571L6.02552 34.3444C7.26743 35.4697 7.51581 35.6951 8.11541 36.1284C11.2083 33.3682 28.0793 25.6084 35.9246 28.9955C36.5638 29.3161 36.9545 29.7066 37.1808 30.1193C37.4007 29.7447 37.6143 29.3701 37.793 29.0431C38.187 28.1686 39.2343 25.8433 36.6413 24.5418L36.6429 24.5434Z" fill="url(#paint3_linear_434_26934)"/>
<path style="mix-blend-mode:overlay" opacity="0.48" d="M37.6506 29.3039C37.6997 29.215 37.7487 29.1277 37.7946 29.0436C38.1885 28.169 39.2359 25.8438 36.6429 24.5423C36.4847 24.474 36.3233 24.4105 36.1588 24.3502C36.1034 24.3296 36.0464 24.3121 35.9911 24.2931C35.8803 24.255 35.7696 24.2169 35.6573 24.182C35.5892 24.1614 35.5196 24.1423 35.4516 24.1233C35.3472 24.0931 35.2428 24.0629 35.1368 24.036C35.0624 24.0169 34.9849 23.9995 34.9105 23.982C34.8077 23.9582 34.7049 23.9344 34.6005 23.9122C34.5214 23.8963 34.4407 23.8804 34.36 23.8661C34.2556 23.8471 34.1527 23.828 34.0467 23.8106C33.9629 23.7963 33.879 23.7852 33.7952 23.7725C33.6892 23.7566 33.5848 23.7423 33.4772 23.7296C33.3918 23.7185 33.3048 23.709 33.2177 23.7011C33.1102 23.69 33.0026 23.6788 32.8934 23.6709C32.8048 23.663 32.7162 23.6566 32.6276 23.6503C32.5169 23.6423 32.4062 23.636 32.2938 23.6312C32.2037 23.6265 32.1151 23.6233 32.0249 23.6201C31.911 23.6154 31.7955 23.6138 31.6816 23.6106C31.5914 23.609 31.5012 23.6074 31.411 23.6074C31.2924 23.6074 31.1737 23.6074 31.0551 23.609C30.9649 23.609 30.8763 23.6106 30.7861 23.6122C30.6627 23.6154 30.5378 23.6201 30.4128 23.6249C30.3258 23.6281 30.2388 23.6312 30.1502 23.636C30.0173 23.6423 29.8844 23.6519 29.7499 23.6598C29.6676 23.6646 29.5869 23.6693 29.5047 23.6757C29.3528 23.6868 29.1978 23.7011 29.0443 23.7154C28.9794 23.7217 28.9162 23.7265 28.8513 23.7328C28.4115 23.7757 27.9669 23.8312 27.5176 23.8947C27.4528 23.9042 27.3879 23.9138 27.323 23.9233C27.1633 23.9471 27.0035 23.9709 26.8437 23.9963C26.7614 24.009 26.6791 24.0249 26.5969 24.0376C26.4529 24.0614 26.3089 24.0868 26.1634 24.1122C26.0748 24.128 25.9862 24.1455 25.8976 24.1614C25.7584 24.1883 25.6192 24.2137 25.4784 24.2423C25.3866 24.2613 25.2933 24.2804 25.1999 24.2994C25.0639 24.328 24.9262 24.3566 24.7902 24.3851C24.6968 24.4058 24.6019 24.4264 24.5086 24.447C24.3725 24.4772 24.2365 24.509 24.0988 24.5391C24.0039 24.5613 23.909 24.5835 23.8141 24.6058C23.678 24.6391 23.5404 24.6724 23.4043 24.7058C23.311 24.7296 23.2176 24.7518 23.1243 24.7756C22.9851 24.8105 22.8474 24.847 22.7082 24.8835C22.6164 24.9073 22.5247 24.9327 22.4329 24.9565C22.2921 24.9946 22.1497 25.0327 22.0089 25.0724C21.9203 25.0962 21.8333 25.1216 21.7447 25.1454C21.5976 25.1867 21.4521 25.2295 21.3049 25.2724C21.2227 25.2962 21.1388 25.32 21.0566 25.3454C20.9031 25.3914 20.7496 25.4375 20.5962 25.4851C20.5218 25.5073 20.4475 25.5295 20.3731 25.5533C20.2038 25.6057 20.0361 25.6597 19.8684 25.7136C19.8099 25.7327 19.7514 25.7501 19.6928 25.7692C19.4856 25.8358 19.2783 25.9041 19.0711 25.9739C19.0537 25.9803 19.0347 25.985 19.0173 25.9914C18.5585 26.1453 18.1029 26.3041 17.652 26.4675C17.6267 26.4771 17.6014 26.4866 17.576 26.4945C17.3799 26.566 17.1853 26.6374 16.9923 26.7088C16.9401 26.7278 16.8894 26.7485 16.8372 26.7675C16.6711 26.8294 16.505 26.8929 16.3389 26.9564C16.2772 26.9802 16.2171 27.004 16.1554 27.0278C16.0019 27.0881 15.8485 27.1469 15.695 27.2072C15.6744 27.2151 15.6539 27.2231 15.6333 27.231C14.7822 27.5611 12.3363 28.3595 14.1667 27.1104C15.9972 25.8612 15.5906 24.9676 13.1748 26.166C10.759 27.3643 3.59075 31.5736 5.17438 33.4512L6.02552 34.3384C6.10779 34.413 6.18531 34.4845 6.25966 34.5511C6.28498 34.5734 6.30871 34.5956 6.33244 34.6162C6.38465 34.6638 6.43527 34.7099 6.48432 34.7527C6.51279 34.7781 6.53969 34.8019 6.565 34.8257C6.60297 34.859 6.63936 34.8924 6.67416 34.9241C6.70264 34.9495 6.73111 34.9749 6.75643 34.9987C6.79281 35.0321 6.82762 35.0622 6.86084 35.0924C6.88141 35.1114 6.90356 35.1305 6.92412 35.1495C6.96368 35.1844 7.00165 35.2178 7.03803 35.2511C7.06334 35.2733 7.08708 35.2939 7.11081 35.3162C7.14245 35.3447 7.17567 35.3733 7.20573 35.3987C7.22471 35.4146 7.24212 35.4304 7.25952 35.4463C7.28325 35.4669 7.30698 35.4876 7.33071 35.5082C7.34811 35.5241 7.3671 35.5384 7.3845 35.5542C7.40507 35.5717 7.42722 35.5892 7.44778 35.6066C7.46518 35.6209 7.48259 35.6368 7.49999 35.6511C7.52056 35.6685 7.54112 35.6844 7.56169 35.7018C7.57751 35.7145 7.59333 35.7272 7.60757 35.7399C7.63288 35.7606 7.65978 35.7812 7.68509 35.8018C7.70566 35.8177 7.72622 35.8336 7.74521 35.8495C7.76736 35.8669 7.79109 35.8844 7.81323 35.9018C7.82906 35.9145 7.84646 35.9272 7.86386 35.9399C7.88284 35.9542 7.90183 35.9685 7.9224 35.9844C7.94138 35.9987 7.96037 36.0129 7.97935 36.0272C7.99833 36.0415 8.01732 36.0558 8.03789 36.0701C8.05845 36.0844 8.07902 36.1002 8.09959 36.1145C8.10433 36.1177 8.10908 36.1209 8.11382 36.1256C8.23564 36.2129 8.37012 36.3082 8.53148 36.4224C10.1673 37.4779 10.2654 37.5414 11.3491 38.0699L12.1132 38.4175C10.5502 37.4033 18.2611 33.4607 24.6162 32.0275C27.0715 31.4736 31.5091 30.6974 33.2953 32.2211C35.306 34.6956 28.3023 38.4842 27.3341 38.2366C27.293 38.2255 27.2439 38.1922 27.2044 38.1731C27.2076 38.016 27.2091 37.9636 27.554 37.6827C28.0935 37.1049 27.3484 37.0541 27.0035 37.0589C24.8535 37.0922 20.0599 39.2984 20.824 39.9032C20.9189 39.9778 21.1277 40.0063 21.4457 39.9857C21.7906 39.9524 22.2526 39.9111 22.5959 39.8666C23.216 39.7735 23.6891 39.6931 24.015 39.6254C24.5149 39.5143 24.8904 39.4249 25.1414 39.3572C25.5675 39.2365 25.886 39.1424 26.097 39.0746C26.4798 38.9466 26.7651 38.8471 26.9528 38.7762C27.3125 38.6376 27.5809 38.5308 27.7581 38.4556C28.1125 38.3011 28.3772 38.1821 28.5523 38.0985C29.0902 37.8335 29.1013 37.8287 29.375 37.6827C29.9603 37.3605 29.9714 37.3541 30.272 37.1716C31.5724 36.3542 32.664 35.5685 34.0879 34.1781C34.8931 33.3226 35.5291 32.6465 36.4261 31.3513C36.7568 30.8307 37.1555 30.1657 37.4956 29.5642C37.5051 29.5467 37.5146 29.5292 37.5257 29.5118C37.5668 29.4404 37.6063 29.3689 37.6459 29.2991L37.6506 29.3039Z" fill="url(#paint4_linear_434_26934)"/>
<path d="M24.0182 39.6324C24.5181 39.5213 24.8936 39.4319 25.1446 39.3642C25.5707 39.2436 25.8892 39.1494 26.1001 39.0817C26.483 38.9536 26.7683 38.8542 26.956 38.7833C27.3157 38.6447 27.5841 38.5378 27.7613 38.4627C28.1157 38.3082 28.3804 38.1892 28.5555 38.1056C29.0934 37.8405 29.1044 37.8357 29.3781 37.6897C29.9635 37.3675 29.9746 37.3612 30.2751 37.1786C31.0551 36.6882 31.7591 36.2089 32.5058 35.6041C32.4457 35.5708 32.3824 35.5407 32.3176 35.5105C30.639 37.0993 27.9132 38.3897 27.3357 38.2421C27.2946 38.2309 27.2455 38.1976 27.206 38.1786C27.2091 38.0214 27.2107 37.9691 27.5556 37.6881C28.0951 37.1104 27.3499 37.0596 27.0051 37.0644C24.8551 37.0977 20.0615 39.3039 20.8256 39.9086C20.9205 39.9832 21.1293 40.0118 21.4473 39.9911C21.7922 39.9578 22.2542 39.9165 22.5975 39.8721C23.2176 39.779 23.6907 39.6986 24.0166 39.6309L24.0182 39.6324Z" fill="url(#paint5_linear_434_26934)"/>
<path style="mix-blend-mode:overlay" opacity="0.48" d="M24.0182 39.6324C24.5181 39.5213 24.8936 39.4319 25.1446 39.3642C25.5707 39.2436 25.8892 39.1494 26.1001 39.0817C26.483 38.9536 26.7683 38.8542 26.956 38.7833C27.3157 38.6447 27.5841 38.5378 27.7613 38.4627C28.1157 38.3082 28.3804 38.1892 28.5555 38.1056C29.0934 37.8405 29.1044 37.8357 29.3781 37.6897C29.9635 37.3675 29.9746 37.3612 30.2751 37.1786C31.0551 36.6882 31.7591 36.2089 32.5058 35.6041C32.4457 35.5708 32.3824 35.5407 32.3176 35.5105C30.639 37.0993 27.9132 38.3897 27.3357 38.2421C27.2946 38.2309 27.2455 38.1976 27.206 38.1786C27.2091 38.0214 27.2107 37.9691 27.5556 37.6881C28.0951 37.1104 27.3499 37.0596 27.0051 37.0644C24.8551 37.0977 20.0615 39.3039 20.8256 39.9086C20.9205 39.9832 21.1293 40.0118 21.4473 39.9911C21.7922 39.9578 22.2542 39.9165 22.5975 39.8721C23.2176 39.779 23.6907 39.6986 24.0166 39.6309L24.0182 39.6324Z" fill="url(#paint6_linear_434_26934)"/>
<path d="M39.4321 15.5204C38.8895 13.5349 38.8452 13.373 38.3136 12.1048C37.9054 11.2493 37.3201 10.1272 36.8454 9.30658C36.3566 8.66694 35.738 7.86382 33.5754 7.2226C21.2781 4.24502 0.974115 13.7444 0.399832 16.1601C0.304909 16.7648 0.172017 17.5695 0.107153 18.179C-0.00358986 20.1963 -0.00675396 20.2741 0.0707663 21.4518C0.296999 23.4945 0.306491 23.5739 0.578603 24.7246L0.596006 24.7944C0.692511 21.6994 26.5289 10.5382 36.8391 15.184C37.6792 15.5617 39.5476 16.2744 39.8513 18.225C39.7453 17.3648 39.5856 16.3204 39.4321 15.5204Z" fill="url(#paint7_linear_434_26934)"/>
<path d="M38.3136 12.1043C37.9054 11.2488 37.3201 10.1267 36.8455 9.30609C36.3566 8.66645 35.738 7.86333 33.5754 7.22211C27.6395 5.78411 19.8416 7.25385 13.2935 9.42989H13.2951C10.3984 10.2759 13.6289 8.25696 15.9403 7.62843C17.1158 7.3094 18.1188 6.42692 15.8897 6.86499C12.2114 7.58875 0.461547 13.4947 0.399847 16.1596C0.304924 16.7643 0.172032 17.569 0.107168 18.1785C0.0423045 19.361 0.0138276 19.8768 0.0185738 20.3403C3.99268 16.6627 23.5737 8.02046 35.8804 11.1028C37.0923 11.4742 37.8627 11.8932 38.4006 12.3122C38.3737 12.2472 38.3452 12.1789 38.3152 12.1075L38.3136 12.1043Z" fill="url(#paint8_linear_434_26934)"/>
<path style="mix-blend-mode:overlay" opacity="0.48" d="M39.432 15.5199C38.8893 13.5343 38.845 13.3724 38.3134 12.1042C37.9053 11.2487 37.3199 10.1266 36.8453 9.30601C36.3565 8.66637 35.7379 7.86325 33.5752 7.22202C33.387 7.176 33.1955 7.13314 33.0025 7.09346C32.9377 7.08076 32.8712 7.06807 32.8063 7.05537C32.6782 7.02997 32.5485 7.00458 32.4187 6.98236C32.3396 6.96807 32.259 6.95696 32.1799 6.94427C32.0628 6.92522 31.9441 6.90617 31.8255 6.88871C31.74 6.87602 31.653 6.86649 31.566 6.8538C31.4521 6.83951 31.3382 6.82364 31.2227 6.80935C31.1325 6.79824 31.0408 6.79031 30.949 6.78078C30.8367 6.76967 30.7244 6.75698 30.612 6.74745C30.5171 6.73952 30.4222 6.73317 30.3273 6.72523C30.2165 6.7173 30.1042 6.70777 29.9919 6.70142C29.8938 6.69508 29.7957 6.69031 29.6992 6.68555C29.5885 6.6792 29.4777 6.67444 29.3654 6.66968C29.2657 6.66651 29.1645 6.66333 29.0648 6.66016C28.9541 6.65698 28.8433 6.65381 28.731 6.65222C28.6282 6.65222 28.5269 6.65063 28.4241 6.65063C28.3133 6.65063 28.2026 6.65063 28.0918 6.65063C27.9874 6.65063 27.883 6.65381 27.777 6.6554C27.6663 6.65698 27.5555 6.65857 27.4448 6.66175C27.3388 6.66492 27.2312 6.66809 27.1252 6.67286C27.0145 6.67762 26.9053 6.68079 26.7946 6.68714C26.6854 6.6919 26.5778 6.69825 26.4687 6.7046C26.3595 6.71095 26.2488 6.7173 26.138 6.72523C26.0273 6.73317 25.9165 6.7411 25.8074 6.74904C25.6982 6.75698 25.589 6.7665 25.4799 6.77602C25.3676 6.78555 25.2552 6.79507 25.1429 6.80618C25.0353 6.8157 24.9262 6.82681 24.817 6.83792C24.7031 6.84903 24.5892 6.86173 24.4753 6.87443C24.3677 6.88713 24.2601 6.89824 24.1525 6.91093C24.0371 6.92522 23.92 6.9395 23.8029 6.95379C23.6969 6.96649 23.5909 6.98077 23.4865 6.99506C23.3679 7.01093 23.2508 7.0268 23.1321 7.04426C23.0277 7.05854 22.9249 7.07442 22.8205 7.09029C22.7002 7.10775 22.58 7.12679 22.4582 7.14584C22.3569 7.16171 22.2541 7.17917 22.1528 7.19504C22.0294 7.21568 21.9076 7.23631 21.7842 7.25694C21.6846 7.2744 21.5865 7.29186 21.4868 7.30932C21.3602 7.33154 21.2353 7.35535 21.1087 7.37757C21.0138 7.39503 20.9188 7.41408 20.8239 7.43312C20.6942 7.45852 20.5645 7.48391 20.4347 7.50931C20.3446 7.52677 20.2544 7.54581 20.1642 7.56486C20.0297 7.59184 19.8968 7.62041 19.764 7.64898C19.6785 7.66803 19.5931 7.68707 19.5077 7.70612C19.37 7.73628 19.2308 7.76643 19.0932 7.79818C19.0156 7.81564 18.9365 7.83468 18.859 7.85214C18.7135 7.88547 18.5695 7.9188 18.424 7.95372C18.3575 7.96959 18.2911 7.98705 18.2246 8.00292C18.0696 8.04102 17.913 8.07911 17.7579 8.11879C17.7089 8.13149 17.6614 8.14418 17.6124 8.15688C17.4399 8.20132 17.2659 8.24577 17.095 8.29179C17.0792 8.29656 17.065 8.29973 17.0492 8.30449C15.7693 8.64574 14.5116 9.02508 13.2965 9.42823H13.2981C10.4014 10.2742 13.6319 8.25529 15.9433 7.62676C17.1188 7.30773 18.1218 6.42525 15.8927 6.86332C12.2113 7.58867 0.461401 13.4946 0.399701 16.1595C0.304778 16.7642 0.171886 17.5689 0.107022 18.1784C0.103858 18.2467 0.0991121 18.3133 0.095948 18.3768V18.4038C0.0832917 18.6054 0.0737994 18.7847 0.0658892 18.9466V18.9498C0.0563969 19.1149 0.0500687 19.2641 0.0437405 19.3974C0.0421585 19.4402 0.0405764 19.4815 0.0374123 19.5212V19.5339C0.0358303 19.572 0.0342482 19.6085 0.0326662 19.6434V19.6513C0.0310841 19.6894 0.0295021 19.7259 0.02792 19.7609C0.0231739 19.9069 0.0200098 20.037 0.0184277 20.1577V20.1624C0.0184277 20.191 0.0184277 20.2196 0.0184277 20.2481H0.0168457C0.0168457 20.6116 0.0342482 20.9179 0.0706353 21.4481C0.296868 23.4908 0.30636 23.5701 0.578472 24.7208L0.595875 24.7907C0.69238 21.6957 26.5288 10.5345 36.839 15.1802C37.6791 15.558 39.5474 16.2706 39.8512 18.2213C39.7452 17.361 39.5854 16.3167 39.4304 15.5167L39.432 15.5199Z" fill="url(#paint9_linear_434_26934)"/>
<path d="M4.31057 7.62311C4.71557 7.13584 5.27087 6.4962 5.70119 6.03115C6.93518 4.81377 7.88916 3.99161 9.68636 2.8647C10.084 2.63191 10.383 2.46155 10.5834 2.35362C10.9483 2.16421 11.2225 2.0256 11.406 1.93777L11.7762 1.76636C9.62783 2.77423 9.9648 3.0504 10.0091 3.07738C10.248 3.22499 11.3997 2.92025 12.4043 2.35521C13.9057 1.65843 15.0163 1.8473 14.6477 2.73613C13.5782 5.31374 4.77094 9.22776 4.15553 8.09133C4.07801 7.9469 4.21881 7.7358 4.30898 7.62311" fill="url(#paint10_linear_434_26934)"/>
<path d="M6.83093 5.2228C6.78663 5.14026 6.81511 5.03551 6.86257 4.93869C6.47972 5.27676 6.10477 5.63229 5.70135 6.03068C5.27103 6.49573 4.71574 7.13537 4.31073 7.62264C4.21897 7.73533 4.07817 7.94642 4.15727 8.09086C4.77427 9.22729 13.5815 5.31327 14.6494 2.73566C14.7079 2.5944 14.7285 2.4706 14.7174 2.36426C11.7226 4.33238 7.26283 6.01798 6.83093 5.22121V5.2228Z" fill="url(#paint11_linear_434_26934)"/>
<path d="M29.0809 2.20163C37.741 6.62196 16.3865 21.6225 4.43576 24.7461C2.90118 25.1477 0.874577 25.535 0.596137 24.7938C0.298712 24.0017 -0.465416 20.1068 0.399963 16.1594C0.447425 18.572 15.0371 12.8501 21.3004 6.05057C23.6402 3.50948 24.686 0.411272 19.9287 0.039868C23.6529 -0.0918692 26.6208 0.946156 29.0809 2.20004V2.20163Z" fill="url(#paint12_linear_434_26934)"/>
<path d="M36.8457 9.3064C37.0071 9.60955 37.208 10.027 37.2902 10.3603C39.3485 18.8296 9.72782 36.5379 5.17627 33.4572C6.87222 35.6205 10.802 38.0902 12.1167 38.4219C19.0508 40.1694 40.3816 27.8226 39.8895 18.528C39.6791 14.5584 38.0117 11.0126 36.8473 9.3064H36.8457Z" fill="url(#paint13_linear_434_26934)"/>
<path d="M36.4311 31.3545C35.7587 32.2783 35.1781 33.0766 34.0928 34.1813C33.093 35.1447 32.1168 36.0336 30.2769 37.1748C29.8793 37.4076 29.5803 37.5779 29.3799 37.6858C29.015 37.8752 28.7408 38.0139 28.5572 38.1017C28.205 38.2646 27.9402 38.3837 27.7631 38.4588C27.4066 38.6059 27.1381 38.7128 26.9578 38.7794C26.4025 38.981 26.3914 38.9842 26.1019 39.0778C25.4849 39.2699 25.4722 39.273 25.1463 39.3603C24.4376 39.5397 24.4091 39.5476 24.0199 39.6286C23.1593 39.792 23.1087 39.8016 22.6008 39.8698C22.2559 39.9079 21.7956 39.9603 21.4507 39.9889C24.7872 39.5825 34.8142 34.5797 37.7948 29.042C37.4088 29.7483 36.8851 30.6879 36.4327 31.3545" fill="url(#paint14_linear_434_26934)"/>
<path d="M31.0363 4.47631C30.9682 4.13506 30.8369 3.81445 30.6407 3.51447C30.6376 3.5113 30.636 3.50654 30.6328 3.50177C30.3054 3.00498 29.7959 2.56692 29.0793 2.20186C27.5858 1.44001 25.9025 0.757515 23.9772 0.368652C24.5182 0.544831 25.0292 0.749579 25.5038 0.99242C32.911 4.77312 15.8328 18.1754 3.25552 20.6847C1.84117 20.9673 0.774871 20.9117 0.0107422 20.7498C0.0787702 22.764 0.41891 24.3242 0.594517 24.7924C0.872958 25.5336 2.89956 25.1463 4.43414 24.7448C9.13915 23.5147 15.3012 20.4451 20.5156 16.904C22.3777 15.639 24.8315 14.6232 21.4475 17.3548C19.3149 19.0769 21.4475 19.1404 25.3077 16.0327C31.8352 10.7791 31.5631 6.34603 31.0347 4.47472L31.0363 4.47631Z" fill="url(#paint15_linear_434_26934)"/>
<path style="mix-blend-mode:overlay" opacity="0.68" d="M31.0363 4.47631C30.9682 4.13506 30.8369 3.81445 30.6407 3.51447C30.6376 3.5113 30.636 3.50654 30.6328 3.50177C30.3054 3.00498 29.7959 2.56692 29.0793 2.20186C27.5858 1.44001 25.9025 0.757515 23.9772 0.368652C24.5182 0.544831 25.0292 0.749579 25.5038 0.99242C32.911 4.77312 15.8328 18.1754 3.25552 20.6847C1.84117 20.9673 0.774871 20.9117 0.0107422 20.7498C0.0787702 22.764 0.41891 24.3242 0.594517 24.7924C0.872958 25.5336 2.89956 25.1463 4.43414 24.7448C9.13915 23.5147 15.3012 20.4451 20.5156 16.904C22.3777 15.639 24.8315 14.6232 21.4475 17.3548C19.3149 19.0769 21.4475 19.1404 25.3077 16.0327C31.8352 10.7791 31.5631 6.34603 31.0347 4.47472L31.0363 4.47631Z" fill="url(#paint16_linear_434_26934)"/>
<path d="M16.9244 20.3463C16.3533 20.9224 16.5605 21.243 17.3405 21.0605C18.3118 20.832 19.2816 20.1733 19.6993 19.6923C20.2498 19.0591 19.7578 18.8448 19.0681 19.0654C18.6393 19.2035 17.4813 19.7844 16.9244 20.3447V20.3463Z" fill="url(#paint17_linear_434_26934)"/>
<path style="mix-blend-mode:overlay" opacity="0.68" d="M16.9244 20.3463C16.3533 20.9224 16.5605 21.243 17.3405 21.0605C18.3118 20.832 19.2816 20.1733 19.6993 19.6923C20.2498 19.0591 19.7578 18.8448 19.0681 19.0654C18.6393 19.2035 17.4813 19.7844 16.9244 20.3447V20.3463Z" fill="url(#paint18_linear_434_26934)"/>
<path d="M38.8202 13.3342C38.8376 13.5326 38.8344 13.7596 38.8455 13.9596C39.3802 24.0303 16.8756 37.3279 8.42432 36.3724C9.88771 37.4532 11.3796 38.2373 12.1168 38.4214C12.8604 38.6087 13.7716 38.6341 14.8031 38.5182C15.3853 38.4659 15.7096 38.7167 15.0072 38.8373C14.2146 38.9738 13.3825 38.9976 12.1959 38.896C11.5789 38.842 11.4365 40.3991 15.7144 39.5102C31.0223 36.3263 36.8268 26.7349 38.9119 22.5669C39.1445 22.5082 38.6493 23.3177 38.5228 23.8748C38.3297 24.7224 39.4008 24.9223 39.8991 21.3496C40.2883 18.5577 39.472 15.1214 38.8218 13.3342H38.8202Z" fill="url(#paint19_linear_434_26934)"/>
<path style="mix-blend-mode:overlay" opacity="0.68" d="M38.8202 13.3342C38.8376 13.5326 38.8344 13.7596 38.8455 13.9596C39.3802 24.0303 16.8756 37.3279 8.42432 36.3724C9.88771 37.4532 11.3796 38.2373 12.1168 38.4214C12.8604 38.6087 13.7716 38.6341 14.8031 38.5182C15.3853 38.4659 15.7096 38.7167 15.0072 38.8373C14.2146 38.9738 13.3825 38.9976 12.1959 38.896C11.5789 38.842 11.4365 40.3991 15.7144 39.5102C31.0223 36.3263 36.8268 26.7349 38.9119 22.5669C39.1445 22.5082 38.6493 23.3177 38.5228 23.8748C38.3297 24.7224 39.4008 24.9223 39.8991 21.3496C40.2883 18.5577 39.472 15.1214 38.8218 13.3342H38.8202Z" fill="url(#paint20_linear_434_26934)"/>
<path d="M14.6876 2.3197C11.9997 4.08466 8.1727 5.60996 7.10324 5.34014C6.99091 5.31157 6.91655 5.26395 6.88017 5.19729C6.85169 5.14332 6.86277 5.06555 6.91339 4.96715L6.9387 4.91635L6.90864 4.90048C6.86276 4.94175 6.8153 4.98143 6.76942 5.0227C6.74411 5.10999 6.74728 5.18777 6.7805 5.24967C6.83271 5.3449 6.93079 5.41156 7.07476 5.44806C7.16177 5.47029 7.2646 5.47981 7.38326 5.47981C8.76597 5.47981 12.2275 4.06086 14.7192 2.43081C14.7192 2.38637 14.7145 2.3451 14.705 2.30542L14.6844 2.31812L14.6876 2.3197Z" fill="url(#paint21_linear_434_26934)"/>
<path d="M23.9615 0.422757C24.5136 0.60211 25.023 0.810033 25.4787 1.04335C26.8123 1.72426 27.3961 2.74641 27.2126 4.08124C26.8629 6.62551 23.7036 10.1904 18.7613 13.6171C13.7937 17.0613 7.99387 19.6834 3.24456 20.6309C2.04063 20.8706 0.955342 20.8928 0.0219337 20.696L0.00927734 20.6928C0.00927734 20.7309 0.0124414 20.7706 0.0140235 20.8087C0.438012 20.8976 0.89206 20.942 1.373 20.942C1.96469 20.942 2.59751 20.8753 3.26671 20.742C8.03026 19.7913 13.8459 17.1629 18.8246 13.7092C23.7922 10.265 26.9689 6.66996 27.3233 4.09553C27.5147 2.70832 26.9104 1.64648 25.5293 0.94177C25.1907 0.768766 24.8221 0.610046 24.4298 0.465612C24.1023 0.389426 23.7653 0.322764 23.4236 0.265625L23.9615 0.42117V0.422757Z" fill="url(#paint22_linear_434_26934)"/>
<path d="M38.901 13.9571C38.893 13.8079 38.882 13.6492 38.8661 13.4666C38.8139 13.3174 38.7617 13.1698 38.7079 13.0254L38.7443 13.3666C38.7649 13.5968 38.7791 13.7857 38.787 13.9634C38.9025 16.1426 37.9628 19.7583 32.8306 24.6119C29.4308 27.8276 24.7654 30.9702 20.0319 33.2367C15.3142 35.4953 11.0854 36.6175 8.42914 36.3175L8.37377 36.3111L8.37061 36.3349C8.41965 36.3699 8.46711 36.4048 8.51615 36.4381C8.78194 36.4651 9.06038 36.4778 9.35147 36.4778C15.2747 36.4778 26.1133 31.1178 32.9066 24.6929C35.7574 21.9978 39.1098 17.9473 38.8978 13.9571H38.901Z" fill="url(#paint23_linear_434_26934)"/>
<defs>
<linearGradient id="paint0_linear_434_26934" x1="4.96418" y1="7.48862" x2="25.4429" y2="0.207408" gradientUnits="userSpaceOnUse">
<stop stop-color="#076BFF"/>
<stop offset="1" stop-color="#DD65F5"/>
</linearGradient>
<linearGradient id="paint1_linear_434_26934" x1="20.6312" y1="1.85408" x2="6.7454" y2="6.20101" gradientUnits="userSpaceOnUse">
<stop stop-color="white" stop-opacity="0"/>
<stop offset="1" stop-color="#7800B1"/>
</linearGradient>
<linearGradient id="paint2_linear_434_26934" x1="-1.25198" y1="39.628" x2="42.893" y2="26.5406" gradientUnits="userSpaceOnUse">
<stop stop-color="#4037FF"/>
<stop offset="1" stop-color="#FF87FF"/>
</linearGradient>
<linearGradient id="paint3_linear_434_26934" x1="33.898" y1="24.6879" x2="-2.61409" y2="39.0013" gradientUnits="userSpaceOnUse">
<stop stop-color="#FF89FF"/>
<stop offset="1" stop-color="#6091FF"/>
</linearGradient>
<linearGradient id="paint4_linear_434_26934" x1="56.3235" y1="16.9872" x2="20.5986" y2="32.1549" gradientUnits="userSpaceOnUse">
<stop stop-color="white" stop-opacity="0"/>
<stop offset="0.15" stop-color="#E7D3F1" stop-opacity="0.17"/>
<stop offset="0.56" stop-color="#AC62CF" stop-opacity="0.61"/>
<stop offset="0.85" stop-color="#861BB9" stop-opacity="0.89"/>
<stop offset="1" stop-color="#7800B1"/>
</linearGradient>
<linearGradient id="paint5_linear_434_26934" x1="16.5477" y1="43.0449" x2="27.9705" y2="37.0125" gradientUnits="userSpaceOnUse">
<stop stop-color="#076BFF"/>
<stop offset="1" stop-color="#DD65F5"/>
</linearGradient>
<linearGradient id="paint6_linear_434_26934" x1="30.0315" y1="36.2533" x2="17.6387" y2="41.7484" gradientUnits="userSpaceOnUse">
<stop stop-color="white" stop-opacity="0"/>
<stop offset="1" stop-color="#7800B1"/>
</linearGradient>
<linearGradient id="paint7_linear_434_26934" x1="-2.99682" y1="24.9135" x2="40.4492" y2="8.69143" gradientUnits="userSpaceOnUse">
<stop stop-color="#4037FF"/>
<stop offset="1" stop-color="#FF87FF"/>
</linearGradient>
<linearGradient id="paint8_linear_434_26934" x1="31.3716" y1="8.22204" x2="-2.34895" y2="18.8267" gradientUnits="userSpaceOnUse">
<stop stop-color="#FF89FF"/>
<stop offset="0.06" stop-color="#F389FF"/>
<stop offset="0.38" stop-color="#B48CFF"/>
<stop offset="0.66" stop-color="#868FFF"/>
<stop offset="0.87" stop-color="#6A90FF"/>
<stop offset="1" stop-color="#6091FF"/>
</linearGradient>
<linearGradient id="paint9_linear_434_26934" x1="46.904" y1="5.97449" x2="1.0141" y2="21.606" gradientUnits="userSpaceOnUse">
<stop stop-color="white" stop-opacity="0"/>
<stop offset="0.15" stop-color="#E7D3F1" stop-opacity="0.17"/>
<stop offset="0.56" stop-color="#AC62CF" stop-opacity="0.61"/>
<stop offset="0.85" stop-color="#861BB9" stop-opacity="0.89"/>
<stop offset="1" stop-color="#7800B1"/>
</linearGradient>
<linearGradient id="paint10_linear_434_26934" x1="3.67933" y1="8.36274" x2="14.4952" y2="1.92902" gradientUnits="userSpaceOnUse">
<stop stop-color="#F5CAE6"/>
<stop offset="1" stop-color="#F5DBF3"/>
</linearGradient>
<linearGradient id="paint11_linear_434_26934" x1="3.18748" y1="12.3715" x2="10.2452" y2="4.45197" gradientUnits="userSpaceOnUse">
<stop stop-color="#6DBDFB"/>
<stop offset="1" stop-color="#F5CAE6"/>
</linearGradient>
<linearGradient id="paint12_linear_434_26934" x1="4.06398" y1="19.2433" x2="24.4876" y2="5.7197" gradientUnits="userSpaceOnUse">
<stop stop-color="#65CDFD"/>
<stop offset="1" stop-color="#FFD9F5"/>
</linearGradient>
<linearGradient id="paint13_linear_434_26934" x1="5.89294" y1="37.7077" x2="39.3738" y2="17.0287" gradientUnits="userSpaceOnUse">
<stop stop-color="#65CDFD"/>
<stop offset="1" stop-color="#FFD9F5"/>
</linearGradient>
<linearGradient id="paint14_linear_434_26934" x1="27.184" y1="37.6366" x2="39.0203" y2="28.3017" gradientUnits="userSpaceOnUse">
<stop stop-color="#6DBDFB"/>
<stop offset="1" stop-color="#F5CAE6"/>
</linearGradient>
<linearGradient id="paint15_linear_434_26934" x1="2.0943" y1="27.0922" x2="27.6443" y2="5.83091" gradientUnits="userSpaceOnUse">
<stop stop-color="#13D2FD"/>
<stop offset="1" stop-color="#F5CAE6"/>
</linearGradient>
<linearGradient id="paint16_linear_434_26934" x1="38.9781" y1="-1.81533" x2="3.95155" y2="22.5825" gradientUnits="userSpaceOnUse">
<stop stop-color="white" stop-opacity="0"/>
<stop offset="0.15" stop-color="#E7D3F1" stop-opacity="0.17"/>
<stop offset="0.56" stop-color="#AC62CF" stop-opacity="0.61"/>
<stop offset="0.85" stop-color="#861BB9" stop-opacity="0.89"/>
<stop offset="1" stop-color="#7800B1"/>
</linearGradient>
<linearGradient id="paint17_linear_434_26934" x1="10.3431" y1="24.8237" x2="22.498" y2="17.5923" gradientUnits="userSpaceOnUse">
<stop stop-color="#13D2FD"/>
<stop offset="1" stop-color="#F5CAE6"/>
</linearGradient>
<linearGradient id="paint18_linear_434_26934" x1="22.3144" y1="17.5052" x2="16.1013" y2="21.4311" gradientUnits="userSpaceOnUse">
<stop stop-color="white" stop-opacity="0"/>
<stop offset="1" stop-color="#7800B1"/>
</linearGradient>
<linearGradient id="paint19_linear_434_26934" x1="14.6339" y1="40.1166" x2="35.0577" y2="18.2588" gradientUnits="userSpaceOnUse">
<stop stop-color="#65CDFD"/>
<stop offset="1" stop-color="#F5CAE6"/>
</linearGradient>
<linearGradient id="paint20_linear_434_26934" x1="50.8865" y1="13.0009" x2="11.9316" y2="37.3647" gradientUnits="userSpaceOnUse">
<stop stop-color="white" stop-opacity="0"/>
<stop offset="0.15" stop-color="#E7D3F1" stop-opacity="0.17"/>
<stop offset="0.56" stop-color="#AC62CF" stop-opacity="0.61"/>
<stop offset="0.85" stop-color="#861BB9" stop-opacity="0.89"/>
<stop offset="1" stop-color="#7800B1"/>
</linearGradient>
<linearGradient id="paint21_linear_434_26934" x1="3.49775" y1="8.05741" x2="14.3136" y2="1.62211" gradientUnits="userSpaceOnUse">
<stop stop-color="white" stop-opacity="0"/>
<stop offset="1" stop-color="white" stop-opacity="0.5"/>
</linearGradient>
<linearGradient id="paint22_linear_434_26934" x1="1.96627" y1="23.1546" x2="27.0705" y2="2.26161" gradientUnits="userSpaceOnUse">
<stop stop-color="white" stop-opacity="0"/>
<stop offset="1" stop-color="white" stop-opacity="0.5"/>
</linearGradient>
<linearGradient id="paint23_linear_434_26934" x1="8.37219" y1="24.7516" x2="38.9104" y2="24.7516" gradientUnits="userSpaceOnUse">
<stop stop-color="white" stop-opacity="0"/>
<stop offset="1" stop-color="white" stop-opacity="0.5"/>
</linearGradient>
</defs>
</svg>
