<?xml version="1.0" encoding="UTF-8"?>
<svg width="78px" height="19px" viewBox="0 0 78 19" version="1.1" xmlns="http://www.w3.org/2000/svg" xmlns:xlink="http://www.w3.org/1999/xlink">
    <title>logo</title>
    <defs>
        <polygon id="path-1" points="17.8057 0.136 0.450964004 0.136 0.450964004 17.999836 17.8057 17.999836 17.8057 0.136"></polygon>
        <polygon id="path-3" points="17.3545 0.136 0 0.136 0 17.999836 17.3545 17.999836 17.3545 0.136"></polygon>
    </defs>
    <g id="Symbols" stroke="none" stroke-width="1" fill="none" fill-rule="evenodd">
        <g id="top_b_배경없음" transform="translate(-141.000000, -16.000000)">
            <g id="logo" transform="translate(141.000000, 16.000000)">
                <g id="Group-3" transform="translate(33.000000, 0.864200)">
                    <mask id="mask-2" fill="white">
                        <use xlink:href="#path-1"></use>
                    </mask>
                    <g id="Clip-2"></g>
                    <path d="M3.7557,4.9791 C5.8167,2.1431 9.6197,1.3221 12.6317,2.9171 L4.5377,14.0581 C2.0897,11.6861 1.6947,7.8161 3.7557,4.9791 L3.7557,4.9791 Z M15.9547,11.3491 C15.7357,11.9791 15.4237,12.5891 15.0107,13.1561 C12.9497,15.9931 9.1467,16.8131 6.1357,15.2181 L6.1367,15.2161 L6.1367,15.2171 L14.2287,4.0791 L14.2287,4.0791 L14.2297,4.0781 L15.3997,2.4671 C15.1577,2.2481 14.9037,2.0381 14.6327,1.8421 C10.6427,-1.0579 5.0567,-0.1729 2.1577,3.8181 C-0.7423,7.8091 0.1427,13.3941 4.1337,16.2931 C8.1247,19.1931 13.7097,18.3081 16.6097,14.3171 C17.1307,13.6011 17.5257,12.8321 17.8057,12.0371 L15.9547,11.3491 Z" id="Fill-1" fill="#888888" mask="url(#mask-2)"></path>
                </g>
                <path d="M65.9178,18.3931 L63.7678,18.3931 L63.7678,8.1241 C63.7678,5.3861 61.5398,3.1581 58.8018,3.1581 C56.0638,3.1581 53.8358,5.3861 53.8358,8.1241 L53.8358,18.3931 L51.6858,18.3931 L51.6858,8.1241 C51.6858,4.2001 54.8778,1.0081 58.8018,1.0081 C62.7258,1.0081 65.9178,4.2001 65.9178,8.1241 L65.9178,18.3931 Z" id="Fill-4" fill="#888888"></path>
                <path d="M77.9789,18.3931 L75.8709,18.3931 C75.8599,18.3931 75.8499,18.3841 75.8499,18.3721 L75.8499,8.3181 C75.8499,5.6651 73.8539,3.3361 71.2059,3.1681 C68.3219,2.9861 65.9179,5.2801 65.9179,8.1241 L65.9179,18.3721 C65.9179,18.3841 65.9089,18.3931 65.8969,18.3931 L63.7889,18.3931 C63.7769,18.3931 63.7679,18.3841 63.7679,18.3721 L63.7679,8.3511 C63.7679,4.5131 66.7109,1.1961 70.5449,1.0161 C74.6219,0.8261 77.9999,4.0871 77.9999,8.1241 L77.9999,18.3721 C77.9999,18.3841 77.9909,18.3931 77.9789,18.3931" id="Fill-6" fill="#888888"></path>
                <polygon id="Fill-8" fill="#FF470E" points="24.2328 4.3941 22.1048 1.4651 16.5038 1.4651 21.4318 8.2481"></polygon>
                <polygon id="Fill-10" fill="#E84B1F" points="25.4535 6.0738 22.6525 9.9278 28.7925 18.3788 34.3935 18.3788"></polygon>
                <polygon id="Fill-12" fill="#FFE100" points="25.4486 13.7764 28.7926 18.3794 34.3936 18.3794 28.2496 9.9224"></polygon>
                <polygon id="Fill-14" fill="#F9BE00" points="25.4486 13.7764 28.2496 9.9224 29.1156 11.1124"></polygon>
                <polygon id="Fill-16" fill="#3E81F6" points="28.7923 1.4654 16.5033 18.3794 22.1053 18.3794 34.3933 1.4654"></polygon>
                <g id="Group-20" transform="translate(0.000000, 0.864200)">
                    <mask id="mask-4" fill="white">
                        <use xlink:href="#path-3"></use>
                    </mask>
                    <g id="Clip-19"></g>
                    <path d="M3.3045,4.9791 C5.3655,2.1431 9.1685,1.3221 12.1795,2.9171 L4.0865,14.0581 C1.6385,11.6861 1.2435,7.8161 3.3045,4.9791 L3.3045,4.9791 Z M15.5035,11.3491 C15.3985,11.6511 15.2695,11.9481 15.1205,12.2391 C15.0785,12.3201 15.0255,12.3961 14.9805,12.4761 C14.8665,12.6781 14.7475,12.8791 14.6115,13.0731 C14.5565,13.1501 14.4955,13.2201 14.4385,13.2951 C14.2485,13.5411 14.0465,13.7711 13.8325,13.9851 C13.7605,14.0581 13.6895,14.1321 13.6135,14.2011 C13.0455,14.7201 12.4075,15.1321 11.7235,15.4311 C11.6455,15.4661 11.5625,15.4951 11.4825,15.5261 C11.2055,15.6351 10.9245,15.7261 10.6375,15.7981 C10.5445,15.8221 10.4515,15.8461 10.3575,15.8661 C8.8065,16.1901 7.1525,15.9961 5.6835,15.2181 L13.7785,4.0781 L14.9485,2.4671 C14.7065,2.2481 14.4515,2.0381 14.1815,1.8421 C10.1915,-1.0579 4.6055,-0.1729 1.7065,3.8181 C-1.1935,7.8091 -0.3085,13.3941 3.6825,16.2931 C7.6735,19.1931 13.2585,18.3081 16.1585,14.3171 C16.6785,13.6011 17.0745,12.8321 17.3545,12.0371 L15.5035,11.3491 Z" id="Fill-18" fill="#888888" mask="url(#mask-4)"></path>
                </g>
            </g>
        </g>
    </g>
</svg>